<svg xmlns="http://www.w3.org/2000/svg" xmlns:xlink="http://www.w3.org/1999/xlink" viewBox="0 0 340.16 106.97"><defs><style>.cls-1{fill:none;}.cls-2{fill:#00b9c1;}.cls-3{clip-path:url(#clip-path);}.cls-4{fill:#8dc63f;}.cls-5{fill:#eb7639;}.cls-6{fill:#e32d4b;}.cls-7{clip-path:url(#clip-path-2);}.cls-8{clip-path:url(#clip-path-3);}.cls-9{clip-path:url(#clip-path-4);}.cls-10{clip-path:url(#clip-path-5);}.cls-11{clip-path:url(#clip-path-6);}.cls-12{clip-path:url(#clip-path-7);}.cls-13{clip-path:url(#clip-path-8);}.cls-14{clip-path:url(#clip-path-9);}.cls-15{clip-path:url(#clip-path-10);}.cls-16{clip-path:url(#clip-path-11);}.cls-17{clip-path:url(#clip-path-12);}.cls-18{clip-path:url(#clip-path-13);}</style><clipPath id="clip-path"><path class="cls-1" d="M55,21.7H65.33l5.36,15.48L76.05,21.7H86.21L75,49.47H66.2Z"/></clipPath><clipPath id="clip-path-2"><path class="cls-1" d="M88.41,21.7h9.21V49.27H88.41Z"/></clipPath><clipPath id="clip-path-3"><path class="cls-1" d="M101.83,21.7h15.44c3.82,0,6.22.86,7.84,2.48a5.89,5.89,0,0,1,1.69,4.29v.08c0,3.27-2,5.28-4.92,6.3,3.54,1,5.83,2.92,5.83,6.7v.08c0,4.41-3.63,7.64-10.6,7.64H101.83Zm15.91,8.86c0-1.22-1-1.89-2.95-1.89h-4v3.86h4c2,0,2.91-.67,2.91-1.89Zm-2.28,7.64h-4.65v4.1h4.61c2,0,3-.83,3-2v-.08C118.45,39,117.47,38.2,115.46,38.2Z"/></clipPath><clipPath id="clip-path-4"><path class="cls-1" d="M130.69,21.7h13.47c4.89,0,8,1.22,9.93,3.15a8.67,8.67,0,0,1,2.52,6.54v.08a8.93,8.93,0,0,1-5.44,8.43l6.42,9.37H147.08l-5.2-7.88h-2v7.88h-9.22Zm13.2,13.11c2.2,0,3.54-1,3.54-2.67v-.08c0-1.78-1.38-2.64-3.5-2.64h-4v5.39Z"/></clipPath><clipPath id="clip-path-5"><path class="cls-1" d="M169.43,21.5h9.14l11.62,27.77h-10l-1.46-3.7h-9.65l-1.41,3.7h-9.85Zm7,17.53-2.52-6.7L171.4,39Z"/></clipPath><clipPath id="clip-path-6"><path class="cls-1" d="M193.28,21.7h8.62l9.81,12.17V21.7h9.14V49.27h-8.19L202.42,36.55V49.27h-9.14Z"/></clipPath><clipPath id="clip-path-7"><path class="cls-1" d="M233,29.5h-8.11V21.7h25.44v7.8h-8.11V49.27H233Z"/></clipPath><clipPath id="clip-path-8"><path class="cls-1" d="M122,53.72h10.32l5.36,15.48,5.35-15.48h10.17L142,81.49h-8.83Z"/></clipPath><clipPath id="clip-path-9"><path class="cls-1" d="M152,67.58V67.5c0-8,6.58-14.37,15.08-14.37s15,6.3,15,14.3v.07c0,8-6.58,14.38-15.08,14.38S152,75.58,152,67.58Zm20.8,0V67.5c0-3.27-2.25-6.22-5.79-6.22s-5.72,2.92-5.72,6.15v.07c0,3.27,2.25,6.23,5.79,6.23S172.77,70.81,172.77,67.58Z"/></clipPath><clipPath id="clip-path-10"><path class="cls-1" d="M185.64,53.72h9.22V81.29h-9.22Z"/></clipPath><clipPath id="clip-path-11"><path class="cls-1" d="M198.43,67.58V67.5c0-8.23,6.42-14.37,14.65-14.37a13.52,13.52,0,0,1,12.49,7.17L218,64.75c-1-2-2.49-3.35-5-3.35-3.11,0-5.16,2.72-5.16,6v.07c0,3.59,2.13,6.11,5.16,6.11,2.6,0,4.06-1.42,5.2-3.47l7.6,4.3c-2.32,4.09-6.18,7.44-13,7.44A14.05,14.05,0,0,1,198.43,67.58Z"/></clipPath><clipPath id="clip-path-12"><path class="cls-1" d="M228.51,53.72H252v7.56H237.57v2.8H251v6.65H237.57v3h14.66v7.56H228.51Z"/></clipPath><clipPath id="clip-path-13"><path class="cls-1" d="M254.37,77.15l4.92-5.86a15.84,15.84,0,0,0,9.65,3.23c1.66,0,2.37-.44,2.37-1.19v-.08c0-.78-.87-1.22-3.82-1.81-6.19-1.26-11.62-3-11.62-8.86V62.5c0-5.24,4.09-9.29,11.69-9.29,5.32,0,9.26,1.26,12.45,3.78l-4.49,6.22a14.46,14.46,0,0,0-8.27-2.72c-1.38,0-2,.48-2,1.15v.07c0,.75.75,1.22,3.66,1.78,7.06,1.3,11.78,3.34,11.78,8.9v.08c0,5.79-4.76,9.33-12.17,9.33C262.92,81.8,257.88,80.23,254.37,77.15Z"/></clipPath></defs><title>Asset 1</title><g id="Layer_2" data-name="Layer 2"><g id="Layer_1-2" data-name="Layer 1"><path class="cls-2" d="M60.59,92.22H63l5.1,12H65.37l-1.09-2.66h-5l-1.09,2.66H55.49Zm2.75,7-1.58-3.85-1.58,3.85Z"/><path class="cls-2" d="M68,95.09H70.6l1.46,5.53,1.72-5.56H76l1.73,5.57,1.5-5.54H81.8L79,104.27H76.64l-1.75-5.59-1.79,5.59H70.79Z"/><path class="cls-2" d="M82.5,99.7v0A4.54,4.54,0,0,1,87,94.92c3,0,4.43,2.37,4.43,5,0,.2,0,.44,0,.68H85.07a2.11,2.11,0,0,0,2.23,1.78,3,3,0,0,0,2.21-.93L91,102.71a4.81,4.81,0,0,1-8.48-3Zm6.43-.77A2,2,0,0,0,87,97a2,2,0,0,0-2,1.93Z"/><path class="cls-2" d="M92.65,103l1.11-1.7a5.16,5.16,0,0,0,2.87,1.09c.75,0,1.09-.28,1.09-.68v0c0-.56-.89-.75-1.89-1-1.27-.38-2.72-1-2.72-2.74v0c0-1.86,1.5-2.89,3.33-2.89A6.3,6.3,0,0,1,99.84,96l-1,1.79A5.42,5.42,0,0,0,96.39,97c-.63,0-1,.27-1,.63v0c0,.51.87.75,1.85,1.09,1.28.42,2.76,1,2.76,2.7v0c0,2-1.52,2.94-3.49,2.94A6.4,6.4,0,0,1,92.65,103Z"/><path class="cls-2" d="M101.46,99.7v0a4.93,4.93,0,0,1,9.86,0v0a4.79,4.79,0,0,1-4.95,4.74A4.73,4.73,0,0,1,101.46,99.7Zm7.31,0v0a2.42,2.42,0,0,0-2.4-2.52A2.33,2.33,0,0,0,104,99.63v0a2.42,2.42,0,0,0,2.39,2.51A2.34,2.34,0,0,0,108.77,99.7Z"/><path class="cls-2" d="M113.19,95.09h2.58v1.29a3.28,3.28,0,0,1,2.69-1.46A2.71,2.71,0,0,1,121,96.37a3.75,3.75,0,0,1,3-1.45c1.92,0,3.07,1.16,3.07,3.35v5.93h-2.58V99.12c0-1.22-.55-1.85-1.52-1.85s-1.56.63-1.56,1.85v5.08h-2.58V99.12c0-1.22-.55-1.85-1.52-1.85s-1.56.63-1.56,1.85v5.08h-2.58Z"/><path class="cls-2" d="M128.89,99.7v0a4.54,4.54,0,0,1,4.51-4.75c3,0,4.44,2.37,4.44,5,0,.2,0,.44,0,.68h-6.34a2.12,2.12,0,0,0,2.23,1.78,3,3,0,0,0,2.21-.93l1.48,1.31a4.82,4.82,0,0,1-8.49-3Zm6.43-.77A2,2,0,0,0,133.4,97a2,2,0,0,0-2,1.93Z"/><path class="cls-2" d="M148.48,99.51l-4.57-7.2H147l2.83,4.77,2.89-4.77h3l-4.57,7.15v4.74h-2.62Z"/><path class="cls-2" d="M154.72,99.7v0a4.53,4.53,0,0,1,4.5-4.75c3.05,0,4.44,2.37,4.44,5,0,.2,0,.44,0,.68h-6.34a2.12,2.12,0,0,0,2.23,1.78,3,3,0,0,0,2.21-.93l1.48,1.31a4.81,4.81,0,0,1-8.48-3Zm6.42-.77A2,2,0,0,0,159.22,97a2,2,0,0,0-2,1.93Z"/><path class="cls-2" d="M165,101.59v0c0-2,1.51-2.9,3.67-2.9a6.43,6.43,0,0,1,2.22.37v-.15c0-1.07-.66-1.67-2-1.67a6.85,6.85,0,0,0-2.52.49l-.64-2a8.05,8.05,0,0,1,3.53-.73,4.23,4.23,0,0,1,3.08,1,4,4,0,0,1,1,2.91v5.28h-2.5v-1a3.5,3.5,0,0,1-2.76,1.15C166.45,104.37,165,103.39,165,101.59ZM171,101v-.46a4.07,4.07,0,0,0-1.65-.34c-1.1,0-1.78.44-1.78,1.26v0c0,.7.57,1.11,1.41,1.11C170.15,102.59,171,101.93,171,101Z"/><path class="cls-2" d="M175.64,95.09h2.59v1.84a2.82,2.82,0,0,1,2.91-2v2.71H181c-1.72,0-2.77,1-2.77,3.21v3.36h-2.59Z"/><path class="cls-2" d="M182,103l1.1-1.7a5.19,5.19,0,0,0,2.87,1.09c.75,0,1.09-.28,1.09-.68v0c0-.56-.88-.75-1.88-1-1.28-.38-2.72-1-2.72-2.74v0C182.5,96,184,95,185.83,95a6.35,6.35,0,0,1,3.4,1.05l-1,1.79a5.35,5.35,0,0,0-2.46-.85c-.63,0-1,.27-1,.63v0c0,.51.87.75,1.86,1.09,1.27.42,2.75,1,2.75,2.7v0c0,2-1.51,2.94-3.48,2.94A6.36,6.36,0,0,1,182,103Z"/><path class="cls-2" d="M200.74,92.22h2.41l5.1,12h-2.74l-1.08-2.66h-5l-1.08,2.66h-2.67Zm2.75,7-1.58-3.85-1.58,3.85Z"/><path class="cls-2" d="M209,99.67v0c0-3,2-4.71,4.15-4.71A3.51,3.51,0,0,1,216,96.28V91.8h2.58v12.4H216v-1.3a3.35,3.35,0,0,1-2.84,1.47C211,104.37,209,102.71,209,99.67Zm7,0v0a2.24,2.24,0,1,0-4.44,0v0a2.24,2.24,0,1,0,4.44,0Z"/><path class="cls-2" d="M220.05,95.09h2.73l2,6.11,2.06-6.11h2.69L226,104.27h-2.35Z"/><path class="cls-2" d="M230.11,99.7v0a4.79,4.79,0,0,1,4.95-4.75A4.73,4.73,0,0,1,240,99.63v0a4.79,4.79,0,0,1-4.95,4.74A4.73,4.73,0,0,1,230.11,99.7Zm7.31,0v0a2.42,2.42,0,0,0-2.4-2.52,2.34,2.34,0,0,0-2.36,2.48v0a2.42,2.42,0,0,0,2.4,2.51A2.33,2.33,0,0,0,237.42,99.7Z"/><path class="cls-2" d="M241.4,99.7v0a4.68,4.68,0,0,1,4.78-4.75,4.48,4.48,0,0,1,3.63,1.53l-1.58,1.7a2.66,2.66,0,0,0-2.07-1A2.33,2.33,0,0,0,244,99.63v0a2.33,2.33,0,0,0,2.31,2.51,2.86,2.86,0,0,0,2.09-1l1.51,1.53a4.57,4.57,0,0,1-3.72,1.67A4.66,4.66,0,0,1,241.4,99.7Z"/><path class="cls-2" d="M251,101.59v0c0-2,1.52-2.9,3.68-2.9a6.47,6.47,0,0,1,2.22.37v-.15c0-1.07-.66-1.67-1.95-1.67a6.85,6.85,0,0,0-2.52.49l-.64-2a8,8,0,0,1,3.53-.73,4.25,4.25,0,0,1,3.08,1,4,4,0,0,1,1,2.91v5.28h-2.49v-1a3.5,3.5,0,0,1-2.76,1.15C252.42,104.37,251,103.39,251,101.59Zm5.94-.6v-.46a4.07,4.07,0,0,0-1.65-.34c-1.11,0-1.79.44-1.79,1.26v0c0,.7.58,1.11,1.41,1.11C256.12,102.59,256.94,101.93,256.94,101Z"/><path class="cls-2" d="M261.17,99.7v0A4.68,4.68,0,0,1,266,94.92a4.48,4.48,0,0,1,3.63,1.53L268,98.15a2.64,2.64,0,0,0-2.07-1,2.33,2.33,0,0,0-2.21,2.48v0a2.33,2.33,0,0,0,2.31,2.51,2.86,2.86,0,0,0,2.09-1l1.52,1.53a4.82,4.82,0,0,1-8.47-3Z"/><path class="cls-2" d="M277.22,95.09h2.68l-3.5,9.33c-.7,1.86-1.44,2.55-3,2.55a4.27,4.27,0,0,1-2.29-.62l.86-1.87a2.4,2.4,0,0,0,1.11.35.86.86,0,0,0,.9-.59l-3.57-9.15h2.74l2.07,6.21Z"/><g class="cls-3"><rect class="cls-4" x="5.07" y="2.19" width="335.08" height="103.6"/><polygon class="cls-2" points="0 50.53 340.1 0 338.88 104.67 0 50.53"/><polygon class="cls-5" points="2.27 50.51 339.93 17.95 338.71 85.39 2.27 50.51"/><polygon class="cls-6" points="1.51 50.82 339.18 38.46 337.96 64.06 1.51 50.82"/></g><g class="cls-7"><rect class="cls-4" x="5.07" y="2.19" width="335.08" height="103.6"/><polygon class="cls-2" points="0 50.53 340.1 0 338.88 104.67 0 50.53"/><polygon class="cls-5" points="2.27 50.51 339.93 17.95 338.71 85.39 2.27 50.51"/><polygon class="cls-6" points="1.51 50.82 339.18 38.46 337.96 64.06 1.51 50.82"/></g><g class="cls-8"><rect class="cls-4" x="5.07" y="2.19" width="335.08" height="103.6"/><polygon class="cls-2" points="0 50.53 340.1 0 338.88 104.67 0 50.53"/><polygon class="cls-5" points="2.27 50.51 339.93 17.95 338.71 85.39 2.27 50.51"/><polygon class="cls-6" points="1.51 50.82 339.18 38.46 337.96 64.06 1.51 50.82"/></g><g class="cls-9"><rect class="cls-4" x="5.07" y="2.19" width="335.08" height="103.6"/><polygon class="cls-2" points="0 50.53 340.1 0 338.88 104.67 0 50.53"/><polygon class="cls-5" points="2.27 50.51 339.93 17.95 338.71 85.39 2.27 50.51"/><polygon class="cls-6" points="1.51 50.82 339.18 38.46 337.96 64.06 1.51 50.82"/></g><g class="cls-10"><rect class="cls-4" x="5.07" y="2.19" width="335.08" height="103.6"/><polygon class="cls-2" points="0 50.53 340.1 0 338.88 104.67 0 50.53"/><polygon class="cls-5" points="2.27 50.51 339.93 17.95 338.71 85.39 2.27 50.51"/><polygon class="cls-6" points="1.51 50.82 339.18 38.46 337.96 64.06 1.51 50.82"/></g><g class="cls-11"><rect class="cls-4" x="5.07" y="2.19" width="335.08" height="103.6"/><polygon class="cls-2" points="0 50.53 340.1 0 338.88 104.67 0 50.53"/><polygon class="cls-5" points="2.27 50.51 339.93 17.95 338.71 85.39 2.27 50.51"/><polygon class="cls-6" points="1.51 50.82 339.18 38.46 337.96 64.06 1.51 50.82"/></g><g class="cls-12"><rect class="cls-4" x="5.07" y="2.19" width="335.08" height="103.6"/><polygon class="cls-2" points="0 50.53 340.1 0 338.88 104.67 0 50.53"/><polygon class="cls-5" points="2.27 50.51 339.93 17.95 338.71 85.39 2.27 50.51"/><polygon class="cls-6" points="1.51 50.82 339.18 38.46 337.96 64.06 1.51 50.82"/></g><g class="cls-13"><rect class="cls-4" x="5.07" y="2.19" width="335.08" height="103.6"/><polygon class="cls-2" points="0 50.53 340.1 0 338.88 104.67 0 50.53"/><polygon class="cls-5" points="2.27 50.51 339.93 17.95 338.71 85.39 2.27 50.51"/><polygon class="cls-6" points="1.51 50.82 339.18 38.46 337.96 64.06 1.51 50.82"/></g><g class="cls-14"><rect class="cls-4" x="5.07" y="2.19" width="335.08" height="103.6"/><polygon class="cls-2" points="0 50.53 340.1 0 338.88 104.67 0 50.53"/><polygon class="cls-5" points="2.27 50.51 339.93 17.95 338.71 85.39 2.27 50.51"/><polygon class="cls-6" points="1.51 50.82 339.18 38.46 337.96 64.06 1.51 50.82"/></g><g class="cls-15"><rect class="cls-4" x="5.07" y="2.19" width="335.08" height="103.6"/><polygon class="cls-2" points="0 50.53 340.1 0 338.88 104.67 0 50.53"/><polygon class="cls-5" points="2.27 50.51 339.93 17.95 338.71 85.39 2.27 50.51"/><polygon class="cls-6" points="1.51 50.82 339.18 38.46 337.96 64.06 1.51 50.82"/></g><g class="cls-16"><rect class="cls-4" x="5.07" y="2.19" width="335.08" height="103.6"/><polygon class="cls-2" points="0 50.53 340.1 0 338.88 104.67 0 50.53"/><polygon class="cls-5" points="2.27 50.51 339.93 17.95 338.71 85.39 2.27 50.51"/><polygon class="cls-6" points="1.51 50.82 339.18 38.46 337.96 64.06 1.51 50.82"/></g><g class="cls-17"><rect class="cls-4" x="5.07" y="2.19" width="335.08" height="103.6"/><polygon class="cls-2" points="0 50.53 340.1 0 338.88 104.67 0 50.53"/><polygon class="cls-5" points="2.27 50.51 339.93 17.95 338.71 85.39 2.27 50.51"/><polygon class="cls-6" points="1.51 50.82 339.18 38.46 337.96 64.06 1.51 50.82"/></g><g class="cls-18"><rect class="cls-4" x="5.07" y="2.19" width="335.08" height="103.6"/><polygon class="cls-2" points="0 50.53 340.1 0 338.88 104.67 0 50.53"/><polygon class="cls-5" points="2.27 50.51 339.93 17.95 338.71 85.39 2.27 50.51"/><polygon class="cls-6" points="1.51 50.82 339.18 38.46 337.96 64.06 1.51 50.82"/></g></g></g></svg>