<svg xmlns="http://www.w3.org/2000/svg" xmlns:xlink="http://www.w3.org/1999/xlink" viewBox="0 0 340.16 111.22"><defs><style>.cls-1{fill:none;}.cls-2{fill:#00b9c1;}.cls-3{clip-path:url(#clip-path);}.cls-4{fill:#8dc63f;}.cls-5{fill:#eb7639;}.cls-6{fill:#e32d4b;}.cls-7{clip-path:url(#clip-path-2);}.cls-8{clip-path:url(#clip-path-3);}.cls-9{clip-path:url(#clip-path-4);}.cls-10{clip-path:url(#clip-path-5);}.cls-11{clip-path:url(#clip-path-6);}.cls-12{clip-path:url(#clip-path-7);}.cls-13{clip-path:url(#clip-path-8);}.cls-14{clip-path:url(#clip-path-9);}.cls-15{clip-path:url(#clip-path-10);}.cls-16{clip-path:url(#clip-path-11);}.cls-17{clip-path:url(#clip-path-12);}.cls-18{clip-path:url(#clip-path-13);}</style><clipPath id="clip-path"><path class="cls-1" d="M55.65,55.63h10.7L71.9,71.68l5.55-16.05H88L76.39,84.42H67.25Z"/></clipPath><clipPath id="clip-path-2"><path class="cls-1" d="M90.26,55.63h9.55V84.21H90.26Z"/></clipPath><clipPath id="clip-path-3"><path class="cls-1" d="M104.16,55.63h16c4,0,6.45.9,8.12,2.57a6.11,6.11,0,0,1,1.76,4.45v.09c0,3.39-2,5.47-5.11,6.53,3.68,1.06,6.05,3,6.05,6.94v.08c0,4.58-3.76,7.92-11,7.92H104.16Zm16.5,9.19c0-1.27-1-2-3.07-2h-4.12v4h4.17c2,0,3-.69,3-2Zm-2.37,7.92h-4.82V77h4.78c2.08,0,3.14-.86,3.14-2.09v-.08C121.39,73.6,120.37,72.74,118.29,72.74Z"/></clipPath><clipPath id="clip-path-4"><path class="cls-1" d="M134.07,55.63h14c5.06,0,8.29,1.27,10.29,3.27a9,9,0,0,1,2.61,6.78v.08a9.25,9.25,0,0,1-5.64,8.74L162,84.21h-10.9l-5.39-8.16h-2v8.16h-9.56Zm13.68,13.6c2.29,0,3.68-1,3.68-2.78v-.08c0-1.84-1.43-2.74-3.64-2.74h-4.16v5.6Z"/></clipPath><clipPath id="clip-path-5"><path class="cls-1" d="M174.21,55.43h9.48l12,28.78H185.36l-1.51-3.83h-10l-1.47,3.83h-10.2Zm7.27,18.17-2.61-6.94-2.62,6.94Z"/></clipPath><clipPath id="clip-path-6"><path class="cls-1" d="M197.92,55.63h8.94L217,68.25V55.63h9.47V84.21H218L207.39,71V84.21h-9.47Z"/></clipPath><clipPath id="clip-path-7"><path class="cls-1" d="M238.08,63.72h-8.41V55.63H256v8.09h-8.41V84.21h-9.55Z"/></clipPath><clipPath id="clip-path-8"><path class="cls-1" d="M259.21,55.63h24.38v7.84h-15v2.9h14v6.9h-14v3.1h15.19v7.84H259.21Z"/></clipPath><clipPath id="clip-path-9"><path class="cls-1" d="M287,79.93l5.1-6.09a16.4,16.4,0,0,0,10,3.35c1.71,0,2.45-.45,2.45-1.22v-.09c0-.81-.9-1.26-4-1.87-6.42-1.31-12.05-3.15-12.05-9.19v-.08c0-5.43,4.25-9.64,12.13-9.64,5.51,0,9.59,1.31,12.9,3.92l-4.65,6.45a15,15,0,0,0-8.58-2.82c-1.43,0-2.08.49-2.08,1.19v.08c0,.78.77,1.27,3.79,1.84,7.31,1.35,12.21,3.47,12.21,9.23v.08c0,6-4.94,9.68-12.61,9.68C295.86,84.75,290.63,83.11,287,79.93Z"/></clipPath><clipPath id="clip-path-10"><path class="cls-1" d="M157,23.11h10.7l5.55,16,5.55-16h10.54L177.75,51.9h-9.14Z"/></clipPath><clipPath id="clip-path-11"><path class="cls-1" d="M189,37.49v-.08c0-8.29,6.82-14.91,15.64-14.91S220.24,29,220.24,37.32v.09c0,8.28-6.82,14.9-15.64,14.9S189,45.78,189,37.49Zm21.56,0v-.08c0-3.39-2.33-6.46-6-6.46s-5.92,3-5.92,6.37v.09c0,3.38,2.33,6.45,6,6.45S210.6,40.84,210.6,37.49Z"/></clipPath><clipPath id="clip-path-12"><path class="cls-1" d="M223.94,23.11h9.55V51.7h-9.55Z"/></clipPath><clipPath id="clip-path-13"><path class="cls-1" d="M267.06,23.11,257.79,37l9.67,14.66H256.6l-4.53-7.44L247.5,51.7H236.84l9.68-14.54-9.27-14h10.86l4.12,6.82,4.17-6.82Z"/></clipPath></defs><title>Asset 1</title><g id="Layer_2" data-name="Layer 2"><g id="Layer_1-2" data-name="Layer 1"><path class="cls-2" d="M56.71,106.44l1.66-2A5.84,5.84,0,0,0,62.18,106c1.15,0,1.85-.46,1.85-1.21v0c0-.71-.44-1.08-2.58-1.63-2.57-.65-4.23-1.36-4.23-3.9v0c0-2.32,1.86-3.85,4.47-3.85A7.43,7.43,0,0,1,66.44,97L65,99.08a6.07,6.07,0,0,0-3.33-1.26c-1.07,0-1.64.5-1.64,1.12v0c0,.84.55,1.12,2.76,1.68,2.59.68,4,1.61,4,3.83v0c0,2.54-1.93,4-4.69,4A8.1,8.1,0,0,1,56.71,106.44Z"/><path class="cls-2" d="M68.86,103.46v0a4.87,4.87,0,0,1,4.84-5.1c3.27,0,4.76,2.54,4.76,5.32,0,.21,0,.47,0,.72H71.62A2.27,2.27,0,0,0,74,106.29a3.19,3.19,0,0,0,2.37-1l1.59,1.4a5.17,5.17,0,0,1-9.11-3.23Zm6.9-.82a2.09,2.09,0,0,0-2.06-2.08,2.18,2.18,0,0,0-2.12,2.08Z"/><path class="cls-2" d="M86.73,98.52H89.5V99.9a3.51,3.51,0,0,1,2.89-1.57,2.92,2.92,0,0,1,2.75,1.56,4,4,0,0,1,3.21-1.56c2.07,0,3.31,1.25,3.31,3.6v6.37H98.88v-5.46c0-1.31-.58-2-1.62-2s-1.68.68-1.68,2v5.46H92.81v-5.46c0-1.31-.59-2-1.63-2s-1.68.68-1.68,2v5.46H86.73Z"/><path class="cls-2" d="M104,103.46v0a5.14,5.14,0,0,1,5.31-5.1,5.08,5.08,0,0,1,5.27,5.06v0a5.29,5.29,0,0,1-10.58,0Zm7.85,0v0a2.59,2.59,0,0,0-2.58-2.7,2.5,2.5,0,0,0-2.53,2.66v0a2.6,2.6,0,0,0,2.57,2.7A2.51,2.51,0,0,0,111.81,103.46Z"/><path class="cls-2" d="M119.69,107v1.28h-2.77V95h2.77v4.94a3.6,3.6,0,0,1,3-1.59c2.28,0,4.45,1.79,4.45,5.06v0c0,3.26-2.14,5-4.45,5A3.75,3.75,0,0,1,119.69,107Zm4.73-3.59v0a2.4,2.4,0,1,0-4.77,0v0a2.4,2.4,0,1,0,4.77,0Z"/><path class="cls-2" d="M129.65,95h2.92v2.46h-2.92Zm.08,3.54h2.77v9.78h-2.77Z"/><path class="cls-2" d="M135.6,95h2.78V108.3H135.6Z"/><path class="cls-2" d="M141.41,95h2.92v2.46h-2.92Zm.07,3.54h2.77v9.78h-2.77Z"/><path class="cls-2" d="M146.46,107l1.19-1.82a5.58,5.58,0,0,0,3.08,1.17c.8,0,1.17-.3,1.17-.73v0c0-.6-1-.8-2-1.13-1.37-.4-2.92-1-2.92-2.94v0c0-2,1.61-3.1,3.58-3.1a6.79,6.79,0,0,1,3.65,1.13l-1.06,1.92a5.73,5.73,0,0,0-2.64-.91c-.68,0-1,.29-1,.67v0c0,.55.93.8,2,1.17,1.37.45,3,1.11,3,2.9v0c0,2.18-1.63,3.16-3.74,3.16A6.82,6.82,0,0,1,146.46,107Z"/><path class="cls-2" d="M156.28,103.46v0a4.87,4.87,0,0,1,4.84-5.1c3.26,0,4.76,2.54,4.76,5.32,0,.21,0,.47,0,.72H159a2.26,2.26,0,0,0,2.39,1.92,3.21,3.21,0,0,0,2.37-1l1.59,1.4a5.17,5.17,0,0,1-9.11-3.23Zm6.9-.82a2.11,2.11,0,0,0-2.06-2.08,2.18,2.18,0,0,0-2.12,2.08Z"/><path class="cls-2" d="M168.31,98.52h2.77v2a3,3,0,0,1,3.12-2.16v2.91h-.15c-1.84,0-3,1.11-3,3.45v3.61h-2.77Z"/><path class="cls-2" d="M182.14,98.52h2.77v1.4A3.61,3.61,0,0,1,188,98.33c2.28,0,4.45,1.79,4.45,5.06v0c0,3.26-2.13,5-4.45,5a3.75,3.75,0,0,1-3.05-1.46v4.2h-2.77Zm7.5,4.91v0a2.4,2.4,0,1,0-4.76,0v0a2.4,2.4,0,1,0,4.76,0Z"/><path class="cls-2" d="M194.35,103.46v0a5.14,5.14,0,0,1,5.31-5.1,5.08,5.08,0,0,1,5.27,5.06v0a5.29,5.29,0,0,1-10.58,0Zm7.85,0v0a2.59,2.59,0,0,0-2.58-2.7,2.5,2.5,0,0,0-2.53,2.66v0a2.6,2.6,0,0,0,2.57,2.7A2.51,2.51,0,0,0,202.2,103.46Z"/><path class="cls-2" d="M207.23,104.85V98.52H210V104c0,1.32.62,2,1.67,2s1.74-.67,1.74-2V98.52h2.77v9.78h-2.77v-1.39a3.47,3.47,0,0,1-2.87,1.57C208.45,108.48,207.23,107.09,207.23,104.85Z"/><path class="cls-2" d="M219,98.52h2.77v2a3,3,0,0,1,3.12-2.16v2.91h-.14c-1.84,0-3,1.11-3,3.45v3.61H219Z"/><path class="cls-2" d="M233,95h2.77V108.3H233Z"/><path class="cls-2" d="M238.27,103.46v0a4.87,4.87,0,0,1,4.84-5.1c3.27,0,4.76,2.54,4.76,5.32,0,.21,0,.47,0,.72H241a2.27,2.27,0,0,0,2.39,1.92,3.19,3.19,0,0,0,2.37-1l1.59,1.4a5.17,5.17,0,0,1-9.11-3.23Zm6.9-.82a2.09,2.09,0,0,0-2.06-2.08,2.18,2.18,0,0,0-2.12,2.08Z"/><path class="cls-2" d="M249.53,107l1.19-1.82a5.58,5.58,0,0,0,3.09,1.17c.8,0,1.16-.3,1.16-.73v0c0-.6-.95-.8-2-1.13-1.37-.4-2.92-1-2.92-2.94v0c0-2,1.6-3.1,3.57-3.1a6.74,6.74,0,0,1,3.65,1.13l-1.05,1.92a5.77,5.77,0,0,0-2.65-.91c-.68,0-1,.29-1,.67v0c0,.55.93.8,2,1.17,1.37.45,3,1.11,3,2.9v0c0,2.18-1.62,3.16-3.74,3.16A6.82,6.82,0,0,1,249.53,107Z"/><path class="cls-2" d="M265.08,105.49v0c0-2.13,1.63-3.12,3.95-3.12a6.93,6.93,0,0,1,2.39.4v-.16c0-1.15-.72-1.79-2.1-1.79a7.14,7.14,0,0,0-2.7.53l-.7-2.12a8.73,8.73,0,0,1,3.8-.78A4.52,4.52,0,0,1,273,99.5a4.27,4.27,0,0,1,1.06,3.12v5.68H271.4v-1.06a3.77,3.77,0,0,1-3,1.24C266.6,108.48,265.08,107.42,265.08,105.49Zm6.37-.64v-.49a4.25,4.25,0,0,0-1.77-.37c-1.18,0-1.91.48-1.91,1.35v0c0,.75.62,1.19,1.51,1.19C270.58,106.57,271.45,105.85,271.45,104.85Z"/><path class="cls-2" d="M277,94.58h2.63l2.24,2.86h-2.14l-1.44-1.2-1.44,1.2h-2.1ZM277,98.52h2.78v9.78H277Z"/><path class="cls-2" d="M282.71,98.52h2.78V99.9a3.46,3.46,0,0,1,2.86-1.57c2.1,0,3.32,1.39,3.32,3.64v6.33H288.9v-5.46c0-1.31-.62-2-1.68-2s-1.73.68-1.73,2v5.46h-2.78Z"/><path class="cls-2" d="M294,103.46v0a4.87,4.87,0,0,1,4.84-5.1c3.27,0,4.76,2.54,4.76,5.32,0,.21,0,.47,0,.72h-6.81a2.27,2.27,0,0,0,2.39,1.92,3.21,3.21,0,0,0,2.37-1l1.59,1.4a5.17,5.17,0,0,1-9.11-3.23Zm6.9-.82a2.09,2.09,0,0,0-2.06-2.08,2.18,2.18,0,0,0-2.12,2.08Zm-1.17-8.43,2.39,1-2.37,2.19h-2Z"/><path class="cls-2" d="M305.23,107l1.19-1.82a5.58,5.58,0,0,0,3.08,1.17c.81,0,1.17-.3,1.17-.73v0c0-.6-.95-.8-2-1.13-1.37-.4-2.92-1-2.92-2.94v0c0-2,1.6-3.1,3.57-3.1A6.79,6.79,0,0,1,313,99.5l-1.06,1.92a5.7,5.7,0,0,0-2.64-.91c-.68,0-1,.29-1,.67v0c0,.55.93.8,2,1.17,1.36.45,2.95,1.11,2.95,2.9v0c0,2.18-1.62,3.16-3.74,3.16A6.82,6.82,0,0,1,305.23,107Z"/><g class="cls-3"><rect class="cls-4" x="5.07" y="2.19" width="335.08" height="103.6"/><polygon class="cls-2" points="0 50.53 340.1 0 338.88 104.67 0 50.53"/><polygon class="cls-5" points="2.27 50.51 339.93 17.95 338.71 85.39 2.27 50.51"/><polygon class="cls-6" points="1.51 50.82 339.18 38.46 337.96 64.06 1.51 50.82"/></g><g class="cls-7"><rect class="cls-4" x="5.07" y="2.19" width="335.08" height="103.6"/><polygon class="cls-2" points="0 50.53 340.1 0 338.88 104.67 0 50.53"/><polygon class="cls-5" points="2.27 50.51 339.93 17.95 338.71 85.39 2.27 50.51"/><polygon class="cls-6" points="1.51 50.82 339.18 38.46 337.96 64.06 1.51 50.82"/></g><g class="cls-8"><rect class="cls-4" x="5.07" y="2.19" width="335.08" height="103.6"/><polygon class="cls-2" points="0 50.53 340.1 0 338.88 104.67 0 50.53"/><polygon class="cls-5" points="2.27 50.51 339.93 17.95 338.71 85.39 2.27 50.51"/><polygon class="cls-6" points="1.51 50.82 339.18 38.46 337.96 64.06 1.51 50.82"/></g><g class="cls-9"><rect class="cls-4" x="5.07" y="2.19" width="335.08" height="103.6"/><polygon class="cls-2" points="0 50.53 340.1 0 338.88 104.67 0 50.53"/><polygon class="cls-5" points="2.27 50.51 339.93 17.95 338.71 85.39 2.27 50.51"/><polygon class="cls-6" points="1.51 50.82 339.18 38.46 337.96 64.06 1.51 50.82"/></g><g class="cls-10"><rect class="cls-4" x="5.07" y="2.19" width="335.08" height="103.6"/><polygon class="cls-2" points="0 50.53 340.1 0 338.88 104.67 0 50.53"/><polygon class="cls-5" points="2.27 50.51 339.93 17.95 338.71 85.39 2.27 50.51"/><polygon class="cls-6" points="1.51 50.82 339.18 38.46 337.96 64.06 1.51 50.82"/></g><g class="cls-11"><rect class="cls-4" x="5.07" y="2.19" width="335.08" height="103.6"/><polygon class="cls-2" points="0 50.53 340.1 0 338.88 104.67 0 50.53"/><polygon class="cls-5" points="2.27 50.51 339.93 17.95 338.71 85.39 2.27 50.51"/><polygon class="cls-6" points="1.51 50.82 339.18 38.46 337.96 64.06 1.51 50.82"/></g><g class="cls-12"><rect class="cls-4" x="5.07" y="2.19" width="335.08" height="103.6"/><polygon class="cls-2" points="0 50.53 340.1 0 338.88 104.67 0 50.53"/><polygon class="cls-5" points="2.27 50.51 339.93 17.95 338.71 85.39 2.27 50.51"/><polygon class="cls-6" points="1.51 50.82 339.18 38.46 337.96 64.06 1.51 50.82"/></g><g class="cls-13"><rect class="cls-4" x="5.07" y="2.19" width="335.08" height="103.6"/><polygon class="cls-2" points="0 50.53 340.1 0 338.88 104.67 0 50.53"/><polygon class="cls-5" points="2.27 50.51 339.93 17.95 338.71 85.39 2.27 50.51"/><polygon class="cls-6" points="1.51 50.82 339.18 38.46 337.96 64.06 1.51 50.82"/></g><g class="cls-14"><rect class="cls-4" x="5.07" y="2.19" width="335.08" height="103.6"/><polygon class="cls-2" points="0 50.53 340.1 0 338.88 104.67 0 50.53"/><polygon class="cls-5" points="2.27 50.51 339.93 17.95 338.71 85.39 2.27 50.51"/><polygon class="cls-6" points="1.51 50.82 339.18 38.46 337.96 64.06 1.51 50.82"/></g><g class="cls-15"><rect class="cls-4" x="5.07" y="2.19" width="335.08" height="103.6"/><polygon class="cls-2" points="0 50.53 340.1 0 338.88 104.67 0 50.53"/><polygon class="cls-5" points="2.27 50.51 339.93 17.95 338.71 85.39 2.27 50.51"/><polygon class="cls-6" points="1.51 50.82 339.18 38.46 337.96 64.06 1.51 50.82"/></g><g class="cls-16"><rect class="cls-4" x="5.07" y="2.19" width="335.08" height="103.6"/><polygon class="cls-2" points="0 50.53 340.1 0 338.88 104.67 0 50.53"/><polygon class="cls-5" points="2.27 50.51 339.93 17.95 338.71 85.39 2.27 50.51"/><polygon class="cls-6" points="1.51 50.82 339.18 38.46 337.96 64.06 1.51 50.82"/></g><g class="cls-17"><rect class="cls-4" x="5.07" y="2.19" width="335.08" height="103.6"/><polygon class="cls-2" points="0 50.53 340.1 0 338.88 104.67 0 50.53"/><polygon class="cls-5" points="2.27 50.51 339.93 17.95 338.71 85.39 2.27 50.51"/><polygon class="cls-6" points="1.51 50.82 339.18 38.46 337.96 64.06 1.51 50.82"/></g><g class="cls-18"><rect class="cls-4" x="5.07" y="2.19" width="335.08" height="103.6"/><polygon class="cls-2" points="0 50.53 340.1 0 338.88 104.67 0 50.53"/><polygon class="cls-5" points="2.27 50.51 339.93 17.95 338.71 85.39 2.27 50.51"/><polygon class="cls-6" points="1.51 50.82 339.18 38.46 337.96 64.06 1.51 50.82"/></g></g></g></svg>