<svg xmlns="http://www.w3.org/2000/svg" viewBox="0 0 225.67 60.38"><defs><style>.cls-1{fill:none;}.cls-2{fill:#1b3866;}.cls-3{fill:#2d6bb4;}.cls-4{fill:#2da5de;}.cls-5{fill:#00aab1;}</style></defs><title>Asset 5</title><g id="Layer_2" data-name="Layer 2"><g id="Layer_1-2" data-name="Layer 1"><polygon class="cls-1" points="121.43 17.53 119.5 12.4 118.91 10.83 118.27 12.52 116.39 17.53 121.43 17.53"/><path class="cls-1" d="M88.87,13.31c2.21,0,3.55-1,3.55-2.67v-.08c0-1.78-1.38-2.64-3.51-2.64h-4v5.39Z"/><path class="cls-1" d="M117.75,46c0-3.27-2.24-6.22-5.79-6.22a5.75,5.75,0,0,0-5.69,5.72c0,.14,0,.28,0,.42V46c0,3.27,2.25,6.23,5.79,6.23a5.74,5.74,0,0,0,5.69-5.54c0-.2,0-.41,0-.61Z"/><path class="cls-1" d="M59.77,7.17h-4V11h4c2,0,2.92-.67,2.92-1.89V9.06C62.73,7.84,61.74,7.17,59.77,7.17Z"/><path class="cls-1" d="M60.4,20.8c2,0,3-.83,3-2v-.08a1.86,1.86,0,0,0-.23-.88c-.4-.69-1.31-1.13-2.77-1.13H55.8v4.1Z"/><polygon class="cls-2" points="31.2 0.2 21.03 0.2 15.68 15.68 10.32 0.2 0 0.2 7.85 19.69 24.33 17.24 31.2 0.2"/><polygon class="cls-3" points="22.51 21.75 24.33 17.24 7.85 19.69 9.2 23.04 22.51 21.75"/><polygon class="cls-4" points="10.78 26.97 20.56 26.61 22.51 21.75 9.2 23.04 10.78 26.97"/><polygon class="cls-5" points="11.19 27.97 20.01 27.97 20.56 26.61 10.78 26.97 11.19 27.97"/><polygon class="cls-2" points="33.39 15.89 42.61 14.52 42.61 0.2 33.39 0.2 33.39 15.89"/><polygon class="cls-3" points="33.39 20.7 42.61 19.82 42.61 14.52 33.39 15.89 33.39 20.7"/><polygon class="cls-4" points="33.39 26.14 42.61 25.8 42.61 19.82 33.39 20.7 33.39 26.14"/><polygon class="cls-5" points="33.39 27.77 42.61 27.77 42.61 25.8 33.39 26.14 33.39 27.77"/><path class="cls-2" d="M62.25.2H46.81V13.9l24.13-3.58a6.28,6.28,0,0,0,.85-3.27V7a5.86,5.86,0,0,0-1.7-4.29C68.48,1.06,66.08.2,62.25.2Zm.48,8.94c0,1.22-.95,1.89-2.92,1.89h-4V7.17h4c2,0,3,.67,3,1.89Z"/><path class="cls-3" d="M46.81,19.41l9-.87V16.7h4.64c1.46,0,2.37.44,2.77,1.13L72,17c-.92-1.82-2.73-2.93-5.14-3.63a7.38,7.38,0,0,0,4.08-3L46.81,13.9Z"/><path class="cls-4" d="M63.44,18.71v.08c0,1.18-1,2-3,2H55.8V18.54l-9,.87v6.24l24.11-.88a6.67,6.67,0,0,0,1.77-4.64v-.08A6.6,6.6,0,0,0,72,17l-8.79.85A1.86,1.86,0,0,1,63.44,18.71Z"/><path class="cls-5" d="M46.81,27.77H62.1c4.14,0,7.1-1.15,8.82-3l-24.11.88Z"/><path class="cls-2" d="M89.15.2H75.68V9.61l9.21-1.37V7.92h2.19l13.74-2a8.41,8.41,0,0,0-1.74-2.53C97.15,1.42,94,.2,89.15.2Z"/><path class="cls-3" d="M88.91,7.92c2.13,0,3.51.86,3.51,2.64v.08c0,1.69-1.34,2.67-3.55,2.67h-4V8.24L75.68,9.61v7l24.94-2.41a9.25,9.25,0,0,0,1-4.25V9.89a9.66,9.66,0,0,0-.78-4l-13.74,2Z"/><path class="cls-4" d="M75.68,24.59l9.21-.34V19.89h2l2.77,4.19,10.17-.37-3.64-5.32a9.39,9.39,0,0,0,4.46-4.17L75.68,16.63Z"/><polygon class="cls-5" points="92.06 27.77 102.58 27.77 99.8 23.71 89.63 24.08 92.06 27.77"/><polygon class="cls-5" points="75.68 27.77 84.89 27.77 84.89 24.25 75.68 24.59 75.68 27.77"/><polygon class="cls-2" points="114.42 0 112.69 4.11 124.54 2.35 123.55 0 114.42 0"/><polygon class="cls-3" points="108.79 13.43 118.27 12.52 118.91 10.83 119.5 12.4 128.38 11.54 124.54 2.35 112.69 4.11 108.79 13.43"/><polygon class="cls-4" points="121.43 17.53 116.39 17.53 118.27 12.52 108.79 13.43 104.57 23.54 132.97 22.5 128.38 11.54 119.5 12.4 121.43 17.53"/><polygon class="cls-5" points="102.8 27.77 112.64 27.77 114.06 24.07 123.71 24.07 125.17 27.77 135.17 27.77 132.97 22.5 104.57 23.54 102.8 27.77"/><polygon class="cls-2" points="138.26 0.31 139.05 0.2 138.26 0.2 138.26 0.31"/><polygon class="cls-3" points="138.26 10.59 154.04 9.07 146.89 0.2 139.05 0.2 138.26 0.31 138.26 10.59"/><polygon class="cls-3" points="165.84 0.2 156.7 0.2 156.7 8.81 165.84 7.93 165.84 0.2"/><polygon class="cls-4" points="138.26 22.3 147.4 21.97 147.4 15.05 152.81 21.77 165.84 21.29 165.84 7.93 156.7 8.81 156.7 12.37 154.04 9.07 138.26 10.59 138.26 22.3"/><polygon class="cls-5" points="157.64 27.77 165.84 27.77 165.84 21.29 152.81 21.77 157.64 27.77"/><polygon class="cls-5" points="138.26 27.77 147.4 27.77 147.4 21.97 138.26 22.3 138.26 27.77"/><polygon class="cls-3" points="169.87 7.54 195.32 5.09 195.32 0.2 169.87 0.2 169.87 7.54"/><polygon class="cls-4" points="169.87 8 177.99 8 177.99 20.85 187.21 20.51 187.21 8 195.32 8 195.32 5.09 169.87 7.54 169.87 8"/><polygon class="cls-5" points="177.99 27.77 187.21 27.77 187.21 20.51 177.99 20.85 177.99 27.77"/><polygon class="cls-2" points="78.2 59.99 87.03 59.99 90.15 52.22 74.04 49.65 78.2 59.99"/><polygon class="cls-3" points="90.15 52.22 93.4 44.16 84.24 43.21 82.69 47.7 81.03 42.88 70.89 41.83 74.04 49.65 90.15 52.22"/><polygon class="cls-4" points="96.99 35.24 87.14 34.85 84.24 43.21 93.4 44.16 96.99 35.24"/><polygon class="cls-4" points="78.13 34.5 67.77 34.09 70.89 41.83 81.03 42.88 78.13 34.5"/><polygon class="cls-5" points="98.21 32.22 88.05 32.22 87.14 34.85 96.99 35.24 98.21 32.22"/><polygon class="cls-5" points="77.34 32.22 67.02 32.22 67.77 34.09 78.13 34.5 77.34 32.22"/><path class="cls-2" d="M112,60.38a15.51,15.51,0,0,0,9.52-3.16L99.17,53.66A15,15,0,0,0,112,60.38Z"/><path class="cls-3" d="M127,47.64l-9.22-1A5.74,5.74,0,0,1,112,52.23c-3.54,0-5.79-3-5.79-6.23v-.08c0-.14,0-.28,0-.42l-9.24-1A14.13,14.13,0,0,0,97,46v.08a14,14,0,0,0,2.21,7.58l22.31,3.56A14.07,14.07,0,0,0,127,47.64Z"/><path class="cls-4" d="M112,39.78c3.55,0,5.79,2.95,5.79,6.22v.08c0,.2,0,.41,0,.61l9.22,1a14.74,14.74,0,0,0,.1-1.64v-.08a14,14,0,0,0-3.84-9.65l-21.46-.84A14,14,0,0,0,97,44.54l9.24,1A5.75,5.75,0,0,1,112,39.78Z"/><path class="cls-5" d="M112,31.63a15.43,15.43,0,0,0-10.29,3.8l21.46.84A15.25,15.25,0,0,0,112,31.63Z"/><polygon class="cls-2" points="130.63 58.69 130.63 59.79 137.53 59.79 130.63 58.69"/><polygon class="cls-3" points="139.84 59.79 139.84 48.98 130.63 48.02 130.63 58.69 137.53 59.79 139.84 59.79"/><polygon class="cls-4" points="139.84 36.93 130.63 36.57 130.63 48.02 139.84 48.98 139.84 36.93"/><polygon class="cls-5" points="139.84 32.22 130.63 32.22 130.63 36.57 139.84 36.93 139.84 32.22"/><path class="cls-3" d="M157.71,60.38c6.86,0,10.72-3.35,13-7.44L169.12,52,161,51.18a5.18,5.18,0,0,1-3.09.93,4.72,4.72,0,0,1-3.64-1.63l-10.53-1.09A14,14,0,0,0,157.71,60.38Z"/><path class="cls-4" d="M143.41,46v.08a15.4,15.4,0,0,0,.37,3.31l10.53,1.09A6.66,6.66,0,0,1,152.79,46v-.08c0-3.3,2.05-6,5.16-6,2.52,0,4,1.38,5,3.35l7.61-4.45c-.13-.23-.26-.46-.4-.68l-23.79-.93A14.29,14.29,0,0,0,143.41,46Z"/><path class="cls-4" d="M163.15,48.64A7.5,7.5,0,0,1,161,51.18l8.08.83Z"/><path class="cls-5" d="M158.07,31.63a14.61,14.61,0,0,0-11.7,5.56l23.79.93A13.49,13.49,0,0,0,158.07,31.63Z"/><polygon class="cls-3" points="197.21 54.93 173.5 52.47 173.5 59.79 197.21 59.79 197.21 54.93"/><polygon class="cls-4" points="197.21 52.23 182.56 52.23 182.56 49.23 196.03 49.23 196.03 42.58 182.56 42.58 182.56 39.78 197.02 39.78 197.02 39.18 173.5 38.25 173.5 52.47 197.21 54.93 197.21 52.23"/><polygon class="cls-5" points="197.02 32.22 173.5 32.22 173.5 38.25 197.02 39.18 197.02 32.22"/><path class="cls-3" d="M222.64,57.56l-22.89-2.37-.39.46c3.5,3.08,8.54,4.65,14.14,4.65C217.38,60.3,220.52,59.32,222.64,57.56Z"/><path class="cls-4" d="M220.51,41.71l1.13-1.56L217.31,40A13.66,13.66,0,0,1,220.51,41.71Z"/><path class="cls-4" d="M225.67,51v-.08c0-5.56-4.73-7.6-11.78-8.9-2.91-.56-3.66-1-3.66-1.78v-.08a.92.92,0,0,1,.11-.43L201,39.34a9.07,9.07,0,0,0-.16,1.66v.08c0,5.83,5.44,7.6,11.62,8.86,3,.59,3.82,1,3.82,1.81v.08c0,.75-.71,1.18-2.36,1.18a15.76,15.76,0,0,1-9.65-3.23l-4.53,5.41,22.89,2.37A8.22,8.22,0,0,0,225.67,51Z"/><path class="cls-5" d="M212.24,39a14.37,14.37,0,0,1,5.07,1l4.33.17L225,35.49c-3.19-2.52-7.13-3.79-12.45-3.79-6.77,0-10.75,3.23-11.54,7.64l9.33.36C210.57,39.27,211.18,39,212.24,39Z"/></g></g></svg>